PathFileType	4	(X/Y/Z)	5_coords_data.trc
DataRate	CameraRate	NumFrames	NumMarkers	Units	OrigDataRate	OrigDataStartFrame	OrigNumFrames
30.0	30.0	9	21	m	30.0	49	77
Frame#	Time	THUMB_TIP	THUMB_IP	THUMB_MCP	THUMB_CMC	INDEX_TIP	INDEX_DIP	INDEX_PIP	INDEX_MCP	MIDDLE_TIP	MIDDLE_DIP	MIDDLE_PIP	MIDDLE_MCP	RING_TIP	RING_DIP	RING_PIP	RING_MCP	PINKY_TIP	PINKY_DIP	PINKY_PIP	PINKY_MCP	WRIST
X1	Y1	Z1	X2	Y2	Z2	X3	Y3	Z3	X4	Y4	Z4	X5	Y5	Z5	X6	Y6	Z6	X7	Y7	Z7	X8	Y8	Z8	X9	Y9	Z9	X10	Y10	Z10	X11	Y11	Z11	X12	Y12	Z12	X13	Y13	Z13	X14	Y14	Z14	X15	Y15	Z15	X16	Y16	Z16	X17	Y17	Z17	X18	Y18	Z18	X19	Y19	Z19	X20	Y20	Z20	X21	Y21	Z21
48	1.6	-0.004225210189819336	-0.06950189971923829	0.9874650268554688	-0.007548550128936768	-0.08569969940185547	1.004760009765625	-0.023353399276733397	-0.08672119903564453	1.02972998046875	-0.03311959838867187	-0.05930550003051758	1.03997998046875	-0.012059800148010254	-0.06481310272216798	1.0232899780273437	-0.017365100860595704	-0.07311090087890625	1.005969970703125	-0.022858400344848633	-0.08251139831542968	0.9853419799804688	-0.06238290023803711	-0.07902880096435547	0.9932039794921875	-0.01478250026702881	-0.050666698455810545	1.026199951171875	-0.016848600387573243	-0.05703820037841797	1.0067999877929688	-0.023026399612426758	-0.06367699813842774	0.979051025390625	-0.06476039886474609	-0.059725601196289065	0.9872860107421875	-0.023494699478149413	-0.04051229858398438	1.0281500244140624	-0.01975589942932129	-0.04196739959716797	1.007469970703125	-0.022458999633789063	-0.04327859878540039	0.9809119873046875	-0.06198519897460938	-0.04081700134277344	0.9871630249023438	-0.021401500701904295	-0.03049259948730469	1.0261800537109376	-0.01697870063781738	-0.02911249923706055	1.0089400024414064	-0.022274499893188478	-0.027607599258422853	0.9903140258789063	-0.05237229919433594	-0.02327910041809082	0.9897659912109374	-0.05293220138549805	-0.030159000396728516	1.056300048828125
49	1.6333333333333333	-0.0007273629903793331	-0.08096880340576172	0.9868930053710937	-0.009072999954223632	-0.091722900390625	1.00697998046875	-0.026045000076293946	-0.08908769989013672	1.0313199462890625	-0.03375920104980469	-0.06093299865722656	1.0413299560546876	-0.006171150207519531	-0.06856079864501953	1.0173400268554686	-0.01324149990081787	-0.07511319732666015	0.9990449829101562	-0.023357099533081054	-0.08304270172119141	0.9790419921875	-0.06212480163574219	-0.07835720062255859	0.9925330200195313	-0.005966209888458252	-0.053473800659179685	1.0199400024414063	-0.009960430145263672	-0.05844699859619141	0.999198974609375	-0.023534500122070312	-0.06403710174560547	0.9743519897460937	-0.06416280364990234	-0.058952701568603515	0.9870269775390625	-0.013427200317382813	-0.042198501586914065	1.0237999877929687	-0.013127499580383301	-0.0424197998046875	1.0026300048828125	-0.022995700836181642	-0.04249449920654297	0.976302001953125	-0.06133629989624023	-0.03998870086669922	0.987302978515625	-0.009764739990234375	-0.03134650039672852	1.0188900146484374	-0.010262999534606933	-0.029329999923706055	1.0023499755859375	-0.022170400619506835	-0.026573999404907227	0.9868870239257812	-0.05271429824829101	-0.022393699645996093	0.9897550048828125	-0.052938899993896484	-0.03035639953613281	1.0566500244140624
50	1.6666666666666667	-0.0011738699674606321	-0.09291500091552735	0.98606201171875	-0.012728899955749511	-0.09728980255126952	1.0087100219726564	-0.029301000595092774	-0.09152629852294922	1.03268994140625	-0.036345901489257815	-0.062376598358154296	1.042530029296875	0.000767221987247467	-0.07307289886474609	1.0065900268554688	-0.009448599815368653	-0.07793869781494141	0.9897050170898437	-0.02447629928588867	-0.08320600128173829	0.9729000244140625	-0.061294700622558596	-0.07775160217285157	0.9921099853515625	0.00751584005355835	-0.05742380142211914	1.0081599731445312	-0.0013255499601364132	-0.06051150131225586	0.9895830078125	-0.02337779998779297	-0.06356850051879882	0.969926025390625	-0.06261750030517578	-0.05805630111694336	0.9863419799804688	0.00165241003036499	-0.04350299835205078	1.01172998046875	-0.004021220207214355	-0.04231769943237305	0.9924429931640625	-0.022989999771118163	-0.04139550018310547	0.9718800048828125	-0.05981280136108398	-0.03899470138549805	0.9869769897460937	0.004664850234985351	-0.03180220031738281	1.00527001953125	-0.004709370136260986	-0.02854800033569336	0.9920059814453125	-0.021769599914550783	-0.025111299514770508	0.9824849853515625	-0.05200289916992187	-0.021452400207519533	0.9898179931640625	-0.05307979965209961	-0.030379600524902343	1.057010009765625
51	1.7	-0.003531160116195678	-0.1021510009765625	0.9866279907226563	-0.01622559928894043	-0.10085800170898437	1.0094500122070313	-0.03216680145263672	-0.09312049865722656	1.0331400146484375	-0.03744139862060547	-0.06330220031738282	1.04322998046875	0.0076218900680541995	-0.07843190002441407	0.9934320068359375	-0.006508639812469482	-0.08089060211181641	0.9791829833984375	-0.026364500045776368	-0.0832479019165039	0.9671859741210938	-0.05948820114135742	-0.07725879669189453	0.9917230224609375	0.020269300460815428	-0.06200600051879883	0.988572021484375	0.004440700054168701	-0.06284579849243165	0.9753380126953125	-0.023802200317382814	-0.06340330123901367	0.9653460083007812	-0.061582801818847656	-0.05735219955444336	0.986614013671875	0.014684599876403808	-0.04468709945678711	0.993885009765625	0.002056190013885498	-0.04235630035400391	0.978906005859375	-0.02350040054321289	-0.04060369873046875	0.9668070068359375	-0.05834960174560547	-0.03842430114746094	0.9869130249023438	0.012946900367736816	-0.031249799728393556	0.9873820190429687	-0.0027448499202728273	-0.02722450065612793	0.9802340087890625	-0.021944299697875976	-0.024093500137329103	0.9779210205078125	-0.0506786003112793	-0.02084480094909668	0.98977197265625	-0.052962100982666016	-0.030639200210571288	1.0571199951171875
52	1.7333333333333334	-0.005927840232849121	-0.1094280014038086	0.9874569702148438	-0.01892329978942871	-0.10300599670410156	1.009530029296875	-0.03391899871826172	-0.094152099609375	1.033050048828125	-0.037714599609375	-0.06365349960327149	1.0433299560546876	0.011811599731445313	-0.08318879699707031	0.97752001953125	-0.005580989837646484	-0.08307450103759766	0.9682379760742188	-0.028341400146484376	-0.08279029846191406	0.9620269775390625	-0.057078399658203126	-0.07687580108642578	0.9908350219726563	0.02538249969482422	-0.06535209655761719	0.9643400268554687	0.004331150054931641	-0.06447109985351562	0.9599730224609375	-0.025306499481201172	-0.06298590087890625	0.960072998046875	-0.05917620086669922	-0.056575401306152344	0.985458984375	0.020950799942016603	-0.045034599304199216	0.971906982421875	0.002409679889678955	-0.041749000549316406	0.9637410278320313	-0.02529770088195801	-0.03956399917602539	0.9610900268554687	-0.05611859893798828	-0.03776589965820312	0.98668701171875	0.013386199951171875	-0.02976930046081543	0.9685679931640625	-0.004912909984588623	-0.025574899673461913	0.968968017578125	-0.023537599563598632	-0.02284700012207031	0.9727509765625	-0.048295398712158204	-0.020440500259399415	0.9898040161132813	-0.05271149826049805	-0.031296600341796876	1.0573399658203124
53	1.7666666666666666	-0.008531499862670898	-0.115697998046875	0.9885709838867187	-0.020619699478149414	-0.10433599853515625	1.0093200073242188	-0.03546220016479492	-0.09456060028076171	1.033010009765625	-0.03793500137329102	-0.06366989898681641	1.04347998046875	0.012491700172424316	-0.08661380004882813	0.9594249877929687	-0.006997859954833984	-0.08441190338134766	0.9565819702148437	-0.03041320037841797	-0.08205580139160157	0.9578209838867188	-0.05439879989624023	-0.07631069946289062	0.98993798828125	0.02228890037536621	-0.06604350280761719	0.9402769775390625	0.000757964015007019	-0.06451170349121094	0.9460360107421875	-0.027272100448608397	-0.06201539993286133	0.9553759765625	-0.056309600830078126	-0.05587689971923828	0.9846409912109375	0.019230600357055663	-0.04403659820556641	0.9484019775390625	-0.001814260005950927	-0.04049089813232422	0.9494840087890625	-0.028438400268554688	-0.038108699798583986	0.9556909790039062	-0.05322949981689453	-0.03718030166625977	0.9866810302734375	0.007089960098266602	-0.026119199752807618	0.951718994140625	-0.01056529998779297	-0.022539100646972655	0.9579669799804688	-0.02699799919128418	-0.020765600204467775	0.9672100219726563	-0.04505350112915039	-0.020085399627685546	0.9898729858398437	-0.052481098175048826	-0.031731700897216795	1.05747998046875
54	1.8	-0.010820199966430664	-0.12022299957275391	0.990177001953125	-0.021556699752807617	-0.10538099670410156	1.0091599731445313	-0.03628329849243164	-0.09469460296630859	1.0327900390625	-0.038167701721191404	-0.06329890060424805	1.0437099609375	0.008029509544372558	-0.08818740081787109	0.94189599609375	-0.011642000198364259	-0.0847873992919922	0.94597900390625	-0.03353390121459961	-0.08134380340576172	0.9545490112304688	-0.05186819839477539	-0.07585040283203125	0.9886900024414063	0.013375800132751465	-0.0643594970703125	0.9209520263671875	-0.005425950050354004	-0.06314450073242188	0.9344099731445312	-0.02956180000305176	-0.06074860000610351	0.9513569946289062	-0.05331760025024414	-0.05535689926147461	0.9836170043945313	0.011977299690246582	-0.041847000122070314	0.929072021484375	-0.00804613971710205	-0.03874929809570313	0.9386500244140625	-0.03118779945373535	-0.03668949890136719	0.9525590209960938	-0.050167999267578124	-0.03683530044555664	0.9861300048828125	-0.001729550004005432	-0.021913299560546873	0.9394340209960937	-0.017138700485229492	-0.019459100723266603	0.95127197265625	-0.03027980041503906	-0.01888520050048828	0.9646890258789063	-0.04180659866333008	-0.020116300582885743	0.9901829833984375	-0.05244380187988281	-0.03168269920349121	1.0577900390625
55	1.8333333333333333	-0.01275469970703125	-0.12328800201416015	0.9920170288085938	-0.021492799758911132	-0.10611000061035156	1.0092000122070313	-0.037091201782226565	-0.09444409942626954	1.0327900390625	-0.038382999420166014	-0.06263359832763672	1.043800048828125	0.002127069950103759	-0.08767870330810547	0.9298330078125	-0.01633650016784668	-0.08405470275878907	0.9395659790039063	-0.0355250015258789	-0.0806104965209961	0.9527239990234375	-0.049970298767089846	-0.07549900054931641	0.9878720092773438	0.004547130107879638	-0.06133720016479492	0.909385986328125	-0.010830800056457519	-0.06102569961547852	0.9275750122070312	-0.030933700561523437	-0.059323200225830076	0.9491719970703125	-0.05070159912109375	-0.055017799377441404	0.9828090209960938	0.003564369916915893	-0.03902119827270508	0.9165770263671875	-0.013247799873352051	-0.03680229949951172	0.932135009765625	-0.03254850006103516	-0.03548469924926758	0.9511890258789063	-0.04723009872436523	-0.03669329833984375	0.985677978515625	-0.006487150192260743	-0.017343900680541993	0.9335679931640625	-0.01934749984741211	-0.01659499931335449	0.9491480102539063	-0.02992620086669922	-0.017385099411010744	0.9643740234375	-0.03902610015869141	-0.020252599716186523	0.9899039916992187	-0.05270119857788086	-0.03163360023498535	1.058030029296875
56	1.8666666666666667	-0.015133899688720703	-0.12538200378417969	0.9933510131835938	-0.02222209930419922	-0.10651699829101563	1.0094099731445312	-0.03767319869995117	-0.0942219009399414	1.032739990234375	-0.03858950042724609	-0.06247000122070313	1.0440400390625	-0.002555439949035644	-0.08581710052490234	0.9221079711914062	-0.019090099334716795	-0.0826355972290039	0.9358389892578125	-0.035784198760986326	-0.07947869873046876	0.952083984375	-0.04804380035400391	-0.07503070068359376	0.9875	-0.0021815099716186517	-0.05819699859619141	0.9027529907226562	-0.014505900382995606	-0.058727298736572266	0.9234710083007812	-0.031253599166870115	-0.057920398712158205	0.9479929809570312	-0.04793899917602539	-0.05455099868774414	0.9828109741210938	-0.002641129970550537	-0.03624679946899414	0.9097839965820312	-0.016181400299072266	-0.034966598510742186	0.9290369873046875	-0.03216279983520508	-0.03443610000610352	0.9511790161132813	-0.04428929901123047	-0.0364552001953125	0.9856829833984375	-0.009704079627990723	-0.013289999961853028	0.93077001953125	-0.020106599807739257	-0.014181400299072265	0.948447998046875	-0.028687999725341796	-0.01609320068359375	0.9647949829101562	-0.036122798919677734	-0.020447700500488282	0.990135009765625	-0.052887401580810546	-0.031464599609375	1.05818994140625
